<svg width="619" height="35" viewBox="0 0 619 35" fill="none" xmlns="http://www.w3.org/2000/svg">
<path d="M50.405 1.1V34H41.945V11.44L28.268 34H22.158L8.481 11.44V34H0.0210001V1.1H11.442L25.213 24.318L38.984 1.1H50.405ZM77.2222 34.47C62.7462 34.47 56.5422 28.454 56.5422 17.503C56.5422 6.599 62.7462 0.629998 77.2222 0.629998C91.6512 0.629998 97.9022 6.646 97.9022 17.503C97.9022 28.407 91.6512 34.47 77.2222 34.47ZM77.2222 27.373C86.0112 27.373 89.4422 24.224 89.4422 17.503C89.4422 10.829 86.0582 7.727 77.2222 7.727C68.3862 7.727 65.0022 10.782 65.0022 17.503C65.0022 24.271 68.4332 27.373 77.2222 27.373ZM139.523 1.1H147.983V34H139.523V21.122H112.733V34H104.273V1.1H112.733V13.978H139.523V1.1ZM189.316 34L185.791 26.997H166.098L162.573 34H153.267L170.234 1.1H181.655L198.669 34H189.316ZM169.247 20.699H182.642L175.968 7.351L169.247 20.699ZM254.365 1.1V34H245.905V11.44L232.228 34H226.118L212.441 11.44V34H203.981V1.1H215.402L229.173 24.318L242.944 1.1H254.365ZM311.815 1.1V34H303.355V11.44L289.678 34H283.568L269.891 11.44V34H261.431V1.1H272.852L286.623 24.318L300.394 1.1H311.815ZM353.661 7.821H327.341V14.495H353.661V20.605H327.341V27.279H353.661V34H318.881V1.1H353.661V7.821ZM383.913 1.1C392.42 1.1 399.893 6.364 399.893 17.55C399.893 28.736 392.42 34 383.913 34H360.037V1.1H383.913ZM380.717 26.903C387.109 26.903 391.433 25.54 391.433 17.55C391.433 9.56 387.109 8.197 380.717 8.197H368.497V26.903H380.717ZM467.097 34L463.572 26.997H443.879L440.354 34H431.048L448.015 1.1H459.436L476.45 34H467.097ZM447.028 20.699H460.423L453.749 7.351L447.028 20.699ZM517.905 16.14C520.725 17.879 522.558 20.605 522.558 24.412C522.558 29.958 519.315 34 511.842 34H481.762V1.1H510.714C518.187 1.1 520.49 4.907 520.49 9.748C520.49 12.051 519.55 14.307 517.905 16.14ZM490.222 7.21V14.025H507.659H507.706C509.962 14.025 512.03 14.025 512.03 10.594C512.03 7.21 509.962 7.21 507.659 7.21H490.222ZM509.774 27.467C512.03 27.467 514.098 27.467 514.098 23.989C514.098 20.511 512.03 20.511 509.774 20.511H490.222V27.467H509.774ZM561.389 34L557.864 26.997H538.171L534.646 34H525.34L542.307 1.1H553.728L570.742 34H561.389ZM541.32 20.699H554.715L548.041 7.351L541.32 20.699ZM609.988 1.1H618.448V34H606.933L584.514 9.325V34H576.054V1.1H587.522L609.988 25.822V1.1Z" fill="url(#paint0_linear_11_245)"/>
<defs>
<linearGradient id="paint0_linear_11_245" x1="302.5" y1="-18.5001" x2="302.5" y2="48" gradientUnits="userSpaceOnUse">
<stop stop-color="#43E97D"/>
<stop offset="1" stop-color="#38F9D5"/>
</linearGradient>
</defs>
</svg>
