<svg width="1920" height="1080" viewBox="0 0 1920 1080" fill="none" xmlns="http://www.w3.org/2000/svg">
<rect width="1920" height="1080" fill="#1E1E1E"/>
<g clip-path="url(#clip0_0_1)">
<rect width="1920" height="1080" fill="#06080E"/>
<g opacity="0.9" filter="url(#filter0_f_0_1)">
<g filter="url(#filter1_f_0_1)">
<ellipse cx="795.549" cy="-464.776" rx="402.301" ry="433.54" transform="rotate(49.672 795.549 -464.776)" fill="#1F2A43"/>
</g>
<g filter="url(#filter2_f_0_1)">
<path d="M792.206 -817.676C1049.35 -776.74 1099.65 -518.133 1037.1 -262.397C974.555 -6.66136 696.373 175.848 439.227 134.912C182.08 93.9759 -63.551 -104.966 -1.00321 -360.702C34.0492 -504.02 390.751 -337.059 514.342 -405.628C611.287 -459.415 679.167 -835.671 792.206 -817.676Z" fill="#1E283F"/>
</g>
<g filter="url(#filter3_f_0_1)">
<ellipse cx="224.555" cy="-502.203" rx="398.444" ry="410.877" transform="rotate(49.672 224.555 -502.203)" fill="#3A4A6F"/>
</g>
<ellipse cx="339.173" cy="360.737" rx="339.173" ry="360.737" transform="matrix(0.816367 0.577534 -0.607935 0.793987 451.631 -1150.83)" fill="#1C263C"/>
</g>
<g style="mix-blend-mode:overlay">
<line x1="1180.5" y1="-0.5" x2="1180.5" y2="1079.5" stroke="white"/>
<line x1="1977" y1="577.5" x2="-322" y2="577.5" stroke="white"/>
<line x1="580.5" y1="-0.5" x2="580.5" y2="1079.5" stroke="white"/>
<line x1="1780.5" y1="-0.5" x2="1780.5" y2="1079.5" stroke="white"/>
<line x1="280.5" y1="-0.5" x2="280.5" y2="1079.5" stroke="white"/>
<line x1="1480.5" y1="-0.5" x2="1480.5" y2="1079.5" stroke="white"/>
<line x1="1977" y1="877.5" x2="-322" y2="877.5" stroke="white"/>
<line x1="880.5" y1="-0.5" x2="880.5" y2="1079.5" stroke="white"/>
<line x1="1977" y1="277.5" x2="-322" y2="277.5" stroke="white"/>
<line x1="130.5" y1="-0.5" x2="130.5" y2="1079.5" stroke="white"/>
<line x1="1330.5" y1="-0.5" x2="1330.5" y2="1079.5" stroke="white"/>
<line x1="1977" y1="727.5" x2="-322" y2="727.5" stroke="white"/>
<line x1="730.5" y1="-0.5" x2="730.5" y2="1079.5" stroke="white"/>
<line x1="1977" y1="127.5" x2="-322" y2="127.5" stroke="white"/>
<line x1="430.5" y1="-0.5" x2="430.5" y2="1079.5" stroke="white"/>
<line x1="1630.5" y1="-0.5" x2="1630.5" y2="1079.5" stroke="white"/>
<line x1="1977" y1="1027.5" x2="-322" y2="1027.5" stroke="white"/>
<line x1="1030.5" y1="-0.5" x2="1030.5" y2="1079.5" stroke="white"/>
<line x1="1977" y1="427.5" x2="-322" y2="427.5" stroke="white"/>
<line x1="55.5001" y1="-0.5" x2="55.5001" y2="1079.5" stroke="white"/>
<line x1="1255.5" y1="-0.5" x2="1255.5" y2="1079.5" stroke="white"/>
<line x1="1977" y1="652.5" x2="-322" y2="652.5" stroke="white"/>
<line x1="655.5" y1="-0.5" x2="655.5" y2="1079.5" stroke="white"/>
<line x1="1977" y1="52.5" x2="-322" y2="52.5" stroke="white"/>
<line x1="1855.5" y1="-0.5" x2="1855.5" y2="1079.5" stroke="white"/>
<line x1="355.5" y1="-0.5" x2="355.5" y2="1079.5" stroke="white"/>
<line x1="1555.5" y1="-0.5" x2="1555.5" y2="1079.5" stroke="white"/>
<line x1="1977" y1="952.5" x2="-322" y2="952.5" stroke="white"/>
<line x1="955.5" y1="-0.5" x2="955.5" y2="1079.5" stroke="white"/>
<line x1="1977" y1="352.5" x2="-322" y2="352.5" stroke="white"/>
<line x1="205.5" y1="-0.5" x2="205.5" y2="1079.5" stroke="white"/>
<line x1="1405.5" y1="-0.5" x2="1405.5" y2="1079.5" stroke="white"/>
<line x1="1977" y1="802.5" x2="-322" y2="802.5" stroke="white"/>
<line x1="805.5" y1="-0.5" x2="805.5" y2="1079.5" stroke="white"/>
<line x1="1977" y1="202.5" x2="-322" y2="202.5" stroke="white"/>
<line x1="505.5" y1="-0.5" x2="505.5" y2="1079.5" stroke="white"/>
<line x1="1705.5" y1="-0.5" x2="1705.5" y2="1079.5" stroke="white"/>
<line x1="1105.5" y1="-0.5" x2="1105.5" y2="1079.5" stroke="white"/>
<line x1="1977" y1="502.5" x2="-322" y2="502.5" stroke="white"/>
</g>
</g>
<defs>
<filter id="filter0_f_0_1" x="-1227.5" y="-2107.5" width="3498.73" height="3488.36" filterUnits="userSpaceOnUse" color-interpolation-filters="sRGB">
<feFlood flood-opacity="0" result="BackgroundImageFix"/>
<feBlend mode="normal" in="SourceGraphic" in2="BackgroundImageFix" result="shape"/>
<feGaussianBlur stdDeviation="366.5" result="effect1_foregroundBlur_0_1"/>
</filter>
<filter id="filter1_f_0_1" x="157.679" y="-1097.56" width="1275.74" height="1265.57" filterUnits="userSpaceOnUse" color-interpolation-filters="sRGB">
<feFlood flood-opacity="0" result="BackgroundImageFix"/>
<feBlend mode="normal" in="SourceGraphic" in2="BackgroundImageFix" result="shape"/>
<feGaussianBlur stdDeviation="108.557" result="effect1_foregroundBlur_0_1"/>
</filter>
<filter id="filter2_f_0_1" x="-227.973" y="-1035.41" width="1506.47" height="1393.19" filterUnits="userSpaceOnUse" color-interpolation-filters="sRGB">
<feFlood flood-opacity="0" result="BackgroundImageFix"/>
<feBlend mode="normal" in="SourceGraphic" in2="BackgroundImageFix" result="shape"/>
<feGaussianBlur stdDeviation="108.557" result="effect1_foregroundBlur_0_1"/>
</filter>
<filter id="filter3_f_0_1" x="-398.286" y="-1123.02" width="1245.68" height="1241.63" filterUnits="userSpaceOnUse" color-interpolation-filters="sRGB">
<feFlood flood-opacity="0" result="BackgroundImageFix"/>
<feBlend mode="normal" in="SourceGraphic" in2="BackgroundImageFix" result="shape"/>
<feGaussianBlur stdDeviation="108.557" result="effect1_foregroundBlur_0_1"/>
</filter>
<clipPath id="clip0_0_1">
<rect width="1920" height="1080" fill="white"/>
</clipPath>
</defs>
</svg>
